# xmcd
#
# Track frame offsets: 
#        150
#        13840
#        25745
#        37713
#        48338
#        57608
#        68593
#        82680
#        93813
#        105013
#        123828
#        134930
#        150718
#        168275
#        181988
#        202533
#        215758
#        231483
#        248013
#        268920
#        288155
#        305435
#
# Disc length: 4277 seconds
#
# Revision: 0
# Processed by: cddbd v1.5.2PL0 Copyright (c) Steve Scherf et al.
# Submitted via: ExactAudioCopy v1.0b1
#
DISCID=1e10b316
DTITLE=伊東ゆかり - プラチナ・ベスト -60カラットの愛の歌
DYEAR=2007
DGENRE=Oldies
TTITLE0=トゥ・ヤング
TTITLE1=すてきな16才
TTITLE2=ヴァケーション
TTITLE3=ロコモーション
TTITLE4=恋の売り込み
TTITLE5=キューティ・パイ
TTITLE6=ネイビー・ブルー
TTITLE7=ボーイ・ハント
TTITLE8=ジョニー・エンジェル
TTITLE9=ドミニク
TTITLE10=砂に消えた涙
TTITLE11=恋する瞳
TTITLE12=夢見る想い
TTITLE13=ナポリは恋人
TTITLE14=愛は限りなく
TTITLE15=オー・マイ・パパ
TTITLE16=マイ・ハピネス(With 宙美)
TTITLE17=レット・イットー・ビー・ミー(With 佐川満男)
TTITLE18=ふたりの小舟
TTITLE19=あなたしか見えない
TTITLE20=The Road~「四月の雪」より~
TTITLE21=18才の彼
EXTD=
EXTT0=
EXTT1=
EXTT2=
EXTT3=
EXTT4=
EXTT5=
EXTT6=
EXTT7=
EXTT8=
EXTT9=
EXTT10=
EXTT11=
EXTT12=
EXTT13=
EXTT14=
EXTT15=
EXTT16=
EXTT17=
EXTT18=
EXTT19=
EXTT20=
EXTT21=
PLAYORDER=
